<svg xmlns="http://www.w3.org/2000/svg" viewBox="0 0 252.01 40.06"><defs><style>.cls-1,.cls-2{isolation:isolate;}.cls-2{font-size:30px;font-family:Bauhaus93, "Bauhaus 93";letter-spacing:0.04em;}.cls-2,.cls-3{fill:#fff;}.cls-3{fill-rule:evenodd;}</style></defs><g id="Warstwa_2" data-name="Warstwa 2"><g id="Warstwa_1-2" data-name="Warstwa 1"><g id="ADVENTURE" class="cls-1"><text class="cls-2" transform="translate(89 31)">ADVENTURE</text></g><path id="Path_3" data-name="Path 3" class="cls-3" d="M2.91,23.06c1.64-1.35,5.51-4.2,7.43-6s1.58-2.35,2.64-3.26,1.13.06,2.09-.62,2.46-2.65,3.53-3.37S20,9.63,21.38,9s2.87-3.18,5.28-3.08c2.07.08,3.26,1.5,4.49,2.65h0c2.12-1.84,4.41-4.74,5.93-4.47,3.43.61,4.29-3.91,8-4.06,2.4-.1,3.93,2.42,5.28,3.08s1.7.15,2.78.87,2.57,2.68,3.53,3.36,1-.28,2.09.63.73,1.48,2.64,3.26,5.79,4.62,7.43,6,4,2.47,2.4,2.13c-5.5-1.2-2,1.63-4,.7-2.78-1.28-4.78-3.63-7.58-4.92a3.49,3.49,0,0,0-3.28,0c-.63-.62-1.25-1.26-1.9-1.88-1.6-1.52-3.55-3.15-5.79-3.54a7.37,7.37,0,0,0-6.06,2c-.57.49-1.1,1-1.64,1.52a4.94,4.94,0,0,1-.77.67,3.1,3.1,0,0,1-1.2.28,5.85,5.85,0,0,0-2.66,1,16.91,16.91,0,0,0-2.68,2.46c-.43.45-1.06,1.17-1.6,1.64a4.2,4.2,0,0,0-3.17,1.2,20.07,20.07,0,0,0-2.56,3,24.28,24.28,0,0,1-2.68,3.05,18.4,18.4,0,0,1-8.45,4.06c-6.62,1.35,1.25-8.38-1.5-8.63-1.87-.17-4.23,3.37-7,4-2.18.48,2.31-2,.58-2.49S2.07,24.85.51,25.2s.77-.79,2.4-2.14Zm13.2,13.12c2.09-1.72,7-5.36,9.48-7.63s3.81-4.78,5.15-5.94,1.45.07,2.67-.8,3.14-3.38,4.52-4.3,1.81-.26,3.54-1.1S45.18,12,48.2,12.48,54.67,18,56.59,19s.09-2.15,1.87-1.33S63.32,21,66,23.36s13.84,8.49,8.6,8.38-13.69-6.41-17.5-8.56-3.36-4-5.25-4.28,1.89,2.54,2.47,3.94,1.26,3.23,1,4.32-1.48-.07-2.2.74.18,4.74-1.78,3.77-2.13-8.7-5.24-7.24-.42,9.21-3.27,11.23c-3.83,2.71,1.72-18.51-.72-15.94s-3.3,10.21-5.24,13.46-4.49,8.89-6.19,5.52,4.81-10.2,2.2-13.52-3.56,4.9-6,8.64S20.12,40,17.27,40.06s5.23-4.19,3-4.8S15,38.46,13.05,38.9s1-1,3.06-2.72Z"/></g></g></svg>